<svg width="40" height="40" viewBox="0 0 40 40" fill="none" xmlns="http://www.w3.org/2000/svg">
<mask id="mask0_5680_1509" style="mask-type:alpha" maskUnits="userSpaceOnUse" x="0" y="0" width="40" height="40">
<rect width="40" height="40" fill="#D9D9D9"/>
</mask>
<g mask="url(#mask0_5680_1509)">
<path d="M20 36.6693C17.0556 36.6693 14.6528 36.204 12.7917 35.2734C10.9306 34.3429 10 33.1415 10 31.6693C10 30.6971 10.4028 29.8498 11.2083 29.1276C12.0139 28.4054 13.125 27.8359 14.5417 27.4193L15.5 30.5859C15.0278 30.7248 14.5972 30.8984 14.2083 31.1068C13.8194 31.3151 13.5556 31.5026 13.4167 31.6693C13.7778 32.1137 14.6111 32.5026 15.9167 32.8359C17.2222 33.1693 18.5833 33.3359 20 33.3359C21.4167 33.3359 22.7847 33.1693 24.1042 32.8359C25.4236 32.5026 26.2639 32.1137 26.625 31.6693C26.4861 31.5026 26.2222 31.3151 25.8333 31.1068C25.4444 30.8984 25.0139 30.7248 24.5417 30.5859L25.5 27.4193C26.9167 27.8359 28.0208 28.4054 28.8125 29.1276C29.6042 29.8498 30 30.6971 30 31.6693C30 33.1415 29.0694 34.3429 27.2083 35.2734C25.3472 36.204 22.9444 36.6693 20 36.6693ZM20 25.5443C20.5 24.6276 21.0278 23.7873 21.5833 23.0234C22.1389 22.2596 22.6806 21.5304 23.2083 20.8359C24.2361 19.5026 25.0556 18.3012 25.6667 17.2318C26.2778 16.1623 26.5833 14.8359 26.5833 13.2526C26.5833 11.4193 25.9444 9.86372 24.6667 8.58594C23.3889 7.30816 21.8333 6.66927 20 6.66927C18.1667 6.66927 16.6111 7.30816 15.3333 8.58594C14.0556 9.86372 13.4167 11.4193 13.4167 13.2526C13.4167 14.8359 13.7222 16.1623 14.3333 17.2318C14.9444 18.3012 15.7639 19.5026 16.7917 20.8359C17.3194 21.5304 17.8611 22.2596 18.4167 23.0234C18.9722 23.7873 19.5 24.6276 20 25.5443ZM20 31.6693C19.6944 31.6693 19.4167 31.579 19.1667 31.3984C18.9167 31.2179 18.7361 30.9748 18.625 30.6693C17.9861 28.6971 17.1806 27.0443 16.2083 25.7109C15.2361 24.3776 14.2917 23.0998 13.375 21.8776C12.4861 20.6554 11.7153 19.3915 11.0625 18.0859C10.4097 16.7804 10.0833 15.1693 10.0833 13.2526C10.0833 10.4748 11.0417 8.1276 12.9583 6.21094C14.875 4.29427 17.2222 3.33594 20 3.33594C22.7778 3.33594 25.125 4.29427 27.0417 6.21094C28.9583 8.1276 29.9167 10.4748 29.9167 13.2526C29.9167 15.1693 29.5972 16.7804 28.9583 18.0859C28.3194 19.3915 27.5417 20.6554 26.625 21.8776C25.7361 23.0998 24.7986 24.3776 23.8125 25.7109C22.8264 27.0443 22.0139 28.6971 21.375 30.6693C21.2639 30.9748 21.0833 31.2179 20.8333 31.3984C20.5833 31.579 20.3056 31.6693 20 31.6693ZM20 16.7943C20.9722 16.7943 21.8056 16.4471 22.5 15.7526C23.1944 15.0582 23.5417 14.2248 23.5417 13.2526C23.5417 12.2804 23.1944 11.447 22.5 10.7526C21.8056 10.0582 20.9722 9.71094 20 9.71094C19.0278 9.71094 18.1944 10.0582 17.5 10.7526C16.8056 11.447 16.4583 12.2804 16.4583 13.2526C16.4583 14.2248 16.8056 15.0582 17.5 15.7526C18.1944 16.4471 19.0278 16.7943 20 16.7943Z" fill="#F7F7F7"/>
</g>
</svg>
